<?xml version="1.0" encoding="utf-8"?>
<!-- Generator: Adobe Illustrator 24.2.1, SVG Export Plug-In . SVG Version: 6.00 Build 0)  -->
<svg version="1.1" id="Layer_1" xmlns="http://www.w3.org/2000/svg" xmlns:xlink="http://www.w3.org/1999/xlink" x="0px" y="0px"
	 viewBox="0 0 85.9 93.9" style="enable-background:new 0 0 85.9 93.9;" xml:space="preserve">
<g>
	<path d="M60.8,26.5c0.6-0.7,1-1.1,1-1.1s-0.3,0.4-0.8,1.2c-0.5,0.7-1.3,1.8-2.3,3.1c-1,1.3-2.1,2.7-3.3,4.3
		c-1.2,1.6-2.5,3.2-3.8,4.9c-1.3,1.6-2.7,3.3-3.9,4.8c-1.3,1.5-2.5,2.9-3.5,4.1c-1,1.2-1.9,2.2-2.5,2.9c-0.6,0.7-1,1.1-1,1.1
		s0.3-0.4,0.8-1.2c0.5-0.7,1.3-1.8,2.3-3.1c1-1.3,2.1-2.8,3.3-4.3c1.2-1.6,2.5-3.2,3.8-4.9c1.3-1.6,2.7-3.3,3.9-4.8
		c1.3-1.5,2.5-2.9,3.5-4.1S60.2,27.2,60.8,26.5z M84.9,23.7c-0.9,0.5-1.9,1-2.8,1.5c0,1,0,2.1,0,3.2c-1,0.2-2,0.4-3,0.6
		c-0.1,1-0.2,2-0.3,3c-1,0.2-2,0.4-3,0.5c-0.1,1-0.2,2-0.3,3c-1,0.2-2,0.4-3,0.6c-0.1,1-0.2,2-0.3,3c-1,0.2-2,0.4-3,0.6
		c-0.1,1-0.2,2-0.3,3c-1,0.2-2,0.4-3,0.6c-0.1,1-0.2,2-0.3,3c-1,0.2-2,0.4-3,0.6c-0.1,1-0.2,2-0.3,3c-1,0.2-2,0.4-3,0.6
		c-0.1,1-0.2,2-0.3,3c-1,0.2-2,0.4-3,0.6c-0.1,1-0.2,2-0.3,3c-1,0.2-2,0.4-2.9,0.6c-0.1,1-0.2,2-0.3,3c-1,0.2-2,0.4-2.9,0.6
		c-0.1,1-0.2,2-0.3,3c-0.9,0.2-1.9,0.4-2.8,0.6c0,0,0,0,0,0c0,0,0.1,0.1,0.1,0.1c0,0,0.1,0.1,0.1,0.1h0c0.8,0.8,1.5,1.4,1.9,2.6
		c0.2,0.6,0.3,1.1,0.3,1.6l0,0.5c0,0.1,0,0.2,0,0.2c0,0.1,0,0.1,0,0.2c0,0.1,0,0.3-0.1,0.4L48.3,72c-0.1,0.1-0.2,0.3-0.3,0.4
		l-1.7,2.2c-0.4,0.4-0.8,0.9-1.2,1.3c-5.1,5.7-8.8,9.9-14.4,15.2c-6.4,6.1-13.4,1-19-3.6c-5.2-4.2-11-9.3-8.5-15.9v0
		c-1.6-2-3.6-5.3-3.2-9.4c0.6-6,5.5-12.6,5.7-12.9c0.9-1.2,2.3-2,3.8-2.2c1.5-0.2,3,0.2,4.3,1.2l3.2,2.6c0.2-0.3,0.4-0.6,0.6-0.9
		c0.1-0.2,0.2-0.3,0.4-0.4c0.1-0.2,0.3-0.3,0.4-0.5c0.1-0.1,0.2-0.2,0.3-0.3l0,0c0.1-0.1,0.3-0.3,0.4-0.4c0.1-0.1,0.3-0.2,0.4-0.3
		c0.1-0.1,0.3-0.2,0.5-0.3c0,0,0,0,0,0c0.3-0.2,0.5-0.3,0.8-0.4c0,0,0,0,0,0c0.1,0,0.1-0.1,0.2-0.1c0.1,0,0.2-0.1,0.3-0.1
		c0.1,0,0.2,0,0.3-0.1c0.3-0.1,0.6-0.1,1-0.1c0.2,0,0.4,0,0.5,0c0.1,0,0.2,0,0.4,0.1c1,0.2,1.7,0.7,2.6,1.3h0c0,0,0,0,0.1,0.1
		c0,0,0.1,0.1,0.1,0.1c0,0,0,0,0,0c0-1,0-1.9,0-2.9c1-0.3,1.9-0.6,2.9-1c0-1,0-2,0-3c1-0.3,1.9-0.6,2.9-0.9c0-1,0-2,0-3
		c1-0.3,1.9-0.6,2.9-0.9c0-1,0-2-0.1-3c1-0.3,1.9-0.6,2.9-0.9c0-1,0-2-0.1-3c1-0.3,1.9-0.6,2.9-0.9c0-1,0-2-0.1-3
		c1-0.3,1.9-0.6,2.9-0.9c0-1,0-2-0.1-3c1-0.3,1.9-0.6,2.9-0.9c0-1-0.1-2-0.1-3c1-0.3,1.9-0.6,2.9-0.9c0-1-0.1-2-0.1-3
		c1-0.3,1.9-0.6,2.9-0.9c0-1-0.1-2-0.1-3c1-0.3,1.9-0.6,2.9-0.9c0-1-0.1-2.1-0.1-3.1c0,0,0,0,0,0c1-0.2,2.1-0.4,3.1-0.6
		c0.3-1,0.6-2,0.9-3c1.1,0.1,2.1,0.3,3.1,0.4c0.6-0.8,1.2-1.7,1.9-2.5c0.9,0.5,1.9,1,2.8,1.5C67.2,1.2,68,0.6,68.9,0
		c0.7,0.8,1.5,1.5,2.2,2.3c1-0.3,2-0.6,3-0.9c0.5,0.9,1,1.9,1.5,2.8c1.1,0,2.1,0,3.2,0c0.2,1,0.4,2.1,0.7,3.1c1,0.3,2.1,0.6,3.1,0.8
		c-0.1,1.1-0.2,2.1-0.2,3.2c0.9,0.6,1.8,1.1,2.7,1.7c-0.4,1-0.8,2-1.2,2.9c0.7,0.8,1.3,1.6,2,2.5c-0.7,0.8-1.4,1.6-2.1,2.4
		C84.2,21.7,84.5,22.7,84.9,23.7z M12,71.5c-0.8-0.7-2-0.5-2.7,0.3c-0.7,0.8-0.5,2,0.3,2.7c0.8,0.7,2,0.5,2.7-0.3
		C13,73.3,12.9,72.1,12,71.5z M14.6,54.4l-3.4-2.7c-0.3-0.3-0.7-0.4-1.1-0.3c-0.4,0-0.8,0.3-1,0.6c0,0.1-4.5,6-4.9,10.8
		c-0.2,1.9,0.5,3.6,1.3,5C8.5,62.9,11.3,59,14.6,54.4z M22.3,79.3l-3.7,0.4h-0.1c-0.3,0-0.5-0.2-0.5-0.4c0-0.3,0.2-0.5,0.4-0.6
		l3.7-0.4c-0.4-1.8-2.2-3-4.1-2.8c-2.1,0.2-3.6,2.1-3.3,4.1c0.2,2.1,2.1,3.6,4.1,3.3C20.8,82.7,22.3,81.1,22.3,79.3z M27.1,82.4
		c0.2-0.2,0.1-0.5-0.1-0.7c-0.2-0.2-0.5-0.1-0.7,0.1l-3.5,4.4c-0.2,0.2-0.1,0.5,0.1,0.7c0.1,0.1,0.2,0.1,0.3,0.1
		c0.1,0,0.3-0.1,0.4-0.2L27.1,82.4z M28.7,83.1c-0.2-0.2-0.5-0.1-0.7,0.1l-3.5,4.4c-0.2,0.2-0.1,0.5,0.1,0.7
		c0.1,0.1,0.2,0.1,0.3,0.1c0.1,0,0.3-0.1,0.4-0.2l3.5-4.4C29,83.6,28.9,83.3,28.7,83.1z M36.8,74.3L19.5,60.4
		c-0.6-0.5-1.5-0.4-2,0.2c-0.5,0.6-0.4,1.5,0.2,2L35,76.6c0.2,0.2,0.5,0.3,0.8,0.3c0.5,0,0.9-0.2,1.2-0.5
		C37.5,75.7,37.5,74.8,36.8,74.3z M46.5,66.1L46.5,66.1l-0.2-0.2h0l-0.2-0.2L46,65.6c-0.2-0.2-0.4-0.4-0.8-0.7
		c0-0.1-0.1-0.1-0.1-0.1l-0.1,0l0,0c-0.1-0.1-0.2-0.1-0.3-0.2l-0.1-0.1c0,0-0.1-0.1-0.2-0.1l-0.1-0.1l-0.6-0.5
		c-0.4-0.3-0.8-0.7-1.3-1c0,0,0,0,0,0c0,0,0,0,0,0c0,0,0,0,0,0c0,0,0,0,0,0c-0.2-0.1-0.3-0.3-0.5-0.4l0,0l-0.7-0.6
		c-0.1-0.1-0.3-0.3-0.5-0.4h0c-0.1-0.1-0.3-0.2-0.4-0.3l-0.1,0l-0.8-0.6l-0.1-0.1h0c-0.2-0.1-0.3-0.3-0.5-0.4l-0.2-0.2l-1-0.8
		l-0.3-0.2c-0.2-0.2-0.4-0.3-0.6-0.5c0,0,0,0,0,0c0,0-0.1-0.1-0.1-0.1c0,0-0.1,0-0.1-0.1h0l0,0h0c-0.1-0.1-0.2-0.1-0.2-0.2
		c0,0-0.1-0.1-0.1-0.1c0,0-0.1-0.1-0.2-0.1s-0.1-0.1-0.1-0.1l-0.1-0.1l-0.1-0.1L35.4,57l-0.2-0.2c-0.1-0.1-0.2-0.2-0.3-0.2
		c-0.3-0.2-0.5-0.4-0.8-0.6l-0.2-0.2c-0.2-0.1-0.3-0.3-0.5-0.4c0,0,0-0.1-0.1-0.1h0c0,0,0,0,0,0c0,0-0.1-0.1-0.1-0.1
		c0,0-0.1-0.1-0.1-0.1h0C33,55.1,32.9,55,32.9,55c0,0-0.1-0.1-0.2-0.1c-0.1-0.1-0.2-0.1-0.2-0.2c0,0-0.1-0.1-0.1-0.1
		c0,0-0.1-0.1-0.2-0.1c0,0-0.1-0.1-0.2-0.1c0,0,0,0,0,0c0,0,0,0,0,0c0,0,0,0,0,0c0,0,0,0,0,0l0,0l-0.7-0.6h0c0,0-0.1-0.1-0.1-0.1
		c0,0-0.1-0.1-0.1-0.1h0l-0.2-0.2h0c0,0,0,0,0,0l0,0l-0.1-0.1l-0.3-0.2v0c0,0-0.1-0.1-0.1-0.1l-0.1,0c-0.2-0.1-0.3-0.3-0.5-0.4
		c-0.2-0.1-0.3-0.3-0.5-0.4c0,0,0,0,0,0v0l0,0c-0.1-0.1-0.2-0.2-0.3-0.2c-0.5-0.4-1-0.8-1.4-1.1l-0.3-0.3l0,0
		c-0.1-0.1-0.3-0.2-0.4-0.3l0,0c0,0-0.1-0.1-0.1-0.1L26.6,50c0,0-0.1-0.1-0.1-0.1l-0.1,0l0,0c-0.1-0.1-0.1-0.1-0.2-0.1l-0.3-0.2
		l-0.1-0.1c0,0-0.1-0.1-0.1-0.1c0,0,0,0-0.1-0.1h0L25.3,49c-0.7-0.4-1.2-0.8-1.8-0.9c-0.1,0-0.2,0-0.3,0c-0.1,0-0.3,0-0.5,0
		c-0.3,0-0.5,0-0.8,0.1l-0.1,0l-0.1,0l-0.3,0.1l0,0l-0.1,0l-0.2,0.1h0c-0.2,0.1-0.3,0.2-0.5,0.3c-0.1,0.1-0.3,0.2-0.4,0.3
		c-0.2,0.2-0.5,0.4-0.7,0.6l-0.2,0.2l-0.2,0.2c-0.1,0.1-0.2,0.2-0.3,0.4l0,0l0,0c-0.1,0.1-0.2,0.3-0.3,0.4c0,0,0,0.1,0,0.1l4.1,3.3
		l23.7,19.1l1-1.3c0.1-0.1,0.1-0.2,0.2-0.3l0.6-1.3c0-0.1,0-0.1,0-0.2c0-0.1,0-0.1,0-0.2c0-0.1,0-0.1,0-0.2l0-0.5
		c0-0.4-0.1-0.8-0.2-1.2C47.6,67.2,47.1,66.7,46.5,66.1z M41.7,60.8c10.5-12.2,21-24.4,31.5-36.6c2-2.4,2.6-4.7,2.4-6.7
		c-0.3-2-1.5-3.8-3.2-5.2c-1.6-1.3-3.4-2.1-5.2-2.1c-2.2,0-4.5,1.1-6.6,3.8c-9.7,12.9-19.3,25.7-29,38.6l0,0c0,0,0.1,0.1,0.1,0.1
		c0,0,0,0,0.1,0.1h0c0,0,0,0,0,0c0,0,0,0,0.1,0c0,0,0,0,0,0c0,0,0.1,0.1,0.1,0.1c0,0,0,0,0,0c0.2,0.2,0.5,0.4,0.7,0.6c0,0,0,0,0,0
		c0,0,0,0,0,0c0,0,0.1,0.1,0.1,0.1c0,0,0,0,0,0c0,0,0,0,0,0c0.1,0.1,0.3,0.2,0.4,0.3s0.3,0.2,0.5,0.3c0,0,0.1,0.1,0.1,0.1
		c0.2,0.2,0.4,0.3,0.6,0.5c0.1,0.1,0.1,0.1,0.2,0.2c0,0,0.1,0.1,0.1,0.1c0.1,0.1,0.2,0.2,0.3,0.3c0.3,0.2,0.5,0.4,0.8,0.6
		c0,0,0,0,0,0c0.1,0.1,0.2,0.1,0.3,0.2c0.2,0.2,0.5,0.4,0.7,0.6c0.1,0.1,0.2,0.1,0.3,0.2c0.2,0.2,0.4,0.4,0.7,0.5
		c0.3,0.3,0.7,0.5,1,0.8c0.1,0.1,0.2,0.2,0.3,0.2c0.2,0.2,0.5,0.4,0.7,0.6c0.3,0.3,0.6,0.5,0.9,0.8h0C41.1,60.3,41.4,60.6,41.7,60.8
		L41.7,60.8z M82.5,16.1c-0.6-3.5-2.6-6.8-5.7-9.4c-4.5-3.6-10-4.6-14.6-2.6c-1.3,0.5-2.5,1.3-3.6,2.4c-0.5,0.5-1,1-1.5,1.6
		c-9.8,13.8-19.7,27.5-29.6,41.3c0.1,0.1,0.3,0.2,0.4,0.3c0.7,0.6,1.6,1.3,2.6,2c0.1,0.1,0.2,0.1,0.3,0.2c9.3-12.3,19-25.3,29-38.6
		c2.2-2.7,4.7-4.2,7.4-4.2c2,0,4,0.8,5.9,2.3c2.1,1.7,3.3,3.7,3.6,5.9c0.3,2.4-0.6,5-2.6,7.5C64,36.4,53.7,48.4,42.5,61.4l0,0l0,0
		c0.7,0.5,1.3,1,1.8,1.5c0.2,0.2,0.4,0.3,0.6,0.5c0.1,0.1,0.2,0.2,0.3,0.2c0.2,0.1,0.3,0.2,0.4,0.4c11.3-12.6,22.6-25.2,34-37.7
		c0.5-0.6,0.9-1.2,1.3-1.8C82.5,21.9,83,18.9,82.5,16.1z M67.2,16.9c-1-0.1-1.9,0.7-2,1.8c-0.1,1,0.8,1.9,1.8,2s1.9-0.7,2-1.8
		C69.1,17.8,68.3,16.9,67.2,16.9z"/>
</g>
</svg>
