<?xml version="1.0" encoding="utf-8"?>
<!-- Generator: Adobe Illustrator 24.2.1, SVG Export Plug-In . SVG Version: 6.00 Build 0)  -->
<svg version="1.1"
	 id="Layer_1" xmlns:cc="http://creativecommons.org/ns#" xmlns:dc="http://purl.org/dc/elements/1.1/" xmlns:inkscape="http://www.inkscape.org/namespaces/inkscape" xmlns:rdf="http://www.w3.org/1999/02/22-rdf-syntax-ns#" xmlns:sodipodi="http://sodipodi.sourceforge.net/DTD/sodipodi-0.dtd" xmlns:svg="http://www.w3.org/2000/svg"
	 xmlns="http://www.w3.org/2000/svg" xmlns:xlink="http://www.w3.org/1999/xlink" x="0px" y="0px" viewBox="0 0 74 88"
	 style="enable-background:new 0 0 74 88;" xml:space="preserve">
<style type="text/css">
	.st0{fill:#FFFFFF;}
</style>
<path class="st0" d="M36.8,0c-0.4,0-0.8,0.2-1.1,0.4c-9.3,6.9-21,13.2-34.4,17.7C0.6,18.4,0,19.1,0,20c0,21.2,2.6,34.6,8.5,44.5
	S23.6,80.7,36,87.8c0.3,0.2,0.7,0.3,1,0.3l0,0c0.3,0,0.7-0.1,1-0.3c12.4-7,21.5-13.3,27.5-23.2S74,41.2,74,20c0-0.9-0.6-1.6-1.4-1.9
	C59.2,13.6,47.5,7.4,38.2,0.4C37.8,0.1,37.3,0,36.8,0z M37,4.4c9.1,6.6,20.3,12.6,33,17c-0.1,19.9-2.6,32.3-7.9,41.1
	S48.7,77,37,83.7C25.3,77,17.2,71.3,11.9,62.5S4.1,41.3,4,21.4C16.7,17,27.8,11,37,4.4z M31.9,27.5c-1,0.1-1.8,1-1.8,2v7.7h-7.8
	c-1.1,0-2,0.9-2,2v9.7c0,1.1,0.9,2,2,2h7.8v7.7c0,1.1,0.9,2,2,2h9.8c1.1,0,2-0.9,2-2v-7.7h7.8c1.1,0,2-0.9,2-2v-9.7c0-1.1-0.9-2-2-2
	h-7.8v-7.7c0-1.1-0.9-2-2-2h-9.8C32.1,27.5,32,27.5,31.9,27.5z M34.1,31.5h5.8v7.7c0,1.1,0.9,2,2,2h7.8v5.7h-7.8c-1.1,0-2,0.9-2,2
	v7.7h-5.8v-7.7c0-1.1-0.9-2-2-2h-7.8v-5.7h7.8c1.1,0,2-0.9,2-2V31.5z"/>
</svg>
