<?xml version="1.0" encoding="utf-8"?>
<!-- Generator: Adobe Illustrator 24.2.1, SVG Export Plug-In . SVG Version: 6.00 Build 0)  -->
<svg version="1.1" id="Layer_1" xmlns="http://www.w3.org/2000/svg" xmlns:xlink="http://www.w3.org/1999/xlink" x="0px" y="0px"
	 viewBox="0 0 64 80" style="enable-background:new 0 0 64 80;" xml:space="preserve">
<style type="text/css">
	.st0{fill-rule:evenodd;clip-rule:evenodd;}
	.st1{fill:#FFFFFF;}
</style>
<g transform="translate(0,-952.36218)">
	<path class="st1" d="M32,952.4L0,966.3c0,42.9,5.4,48.4,32,66.1c26.6-17.7,32-23.1,32-66.1L32,952.4z M32,972.4c2.2,0,4,1.8,4,4
		l-1,18c0,1.7-1.3,3-3,3c-1.7,0-3-1.3-3-3l-1-18C28,974.2,29.8,972.4,32,972.4z M32,1002.4c2.2,0,4,1.8,4,4c0,2.2-1.8,4-4,4
		s-4-1.8-4-4C28,1004.2,29.8,1002.4,32,1002.4z"/>
</g>
</svg>
